#!OML:ASF X:\für Bonn\!DataBase\2005_08_10_Bjorn_Final\c3d\bjorn.ASF
:FULLY-SPECIFIED
:DEGREES
249
root 2.40056 17.6827 12.0004 -215.584 -257.963 -221.111
lowerback -3.24865 3.03611 2.76083
upperback 6.96555 4.17905 -1.92073
thorax 9.54786 2.38818 -3.08747
lowerneck -5.15891 2.09997 4.99815
upperneck 3.98218 2.47421 -0.353542
head 2.22034 1.30792 -0.883919
rclavicle 3.97569e-015 -1.11319e-014
rhumerus -35.2848 13.3376 -102.686
rradius 68.7712
rwrist 2.48459
rhand -19.9648 24.5525
rfingers 7.12502
rthumb 6.37383 -5.33161
lclavicle 3.97569e-015 -1.11319e-014
lhumerus -47.006 -18.6783 92.7248
lradius 91.1962
lwrist -3.27969
lhand -38.1858 -22.5738
lfingers 7.12502
lthumb -11.2184 7.10626
rfemur 2.95037 -10.3108 5.77672
rtibia 62.6801
rfoot 4.21909 10.2662
rtoes -35.2322
lfemur -27.138 1.59541 -33.2657
ltibia 46.6647
lfoot -19.8083 3.83348
ltoes 19.5841
250
root 2.65979 17.6005 12.0857 -216.404 -258.846 -221.949
lowerback -3.16274 2.85265 2.35676
upperback 7.1022 4.00532 -2.24176
thorax 9.62807 2.29709 -3.22629
lowerneck -5.28469 2.15144 4.95065
upperneck 3.46479 2.53443 -0.0872753
head 2.0679 1.33704 -0.788059
rclavicle 3.18055e-015 -9.54166e-015
rhumerus -35.6893 12.2744 -102.239
rradius 67.5357
rwrist 2.28611
rhand -20.5347 23.6168
rfingers 7.12502
rthumb 5.82364 -6.28317
lclavicle 3.18055e-015 -9.54166e-015
lhumerus -45.4026 -18.3945 92.257
lradius 91.918
lwrist -3.26539
lhand -37.538 -22.0852
lfingers 7.12502
lthumb -10.5936 7.62784
rfemur 1.3007 -10.3906 4.86712
rtibia 65.2225
rfoot 3.2125 9.97614
rtoes -35.0644
lfemur -26.5892 0.784449 -33.7383
ltibia 47.7354
lfoot -21.0818 4.23791
ltoes 18.39
251
root 2.90958 17.5268 12.167 -217.532 -259.773 -222.969
lowerback -2.84073 2.65574 1.95996
upperback 7.26926 3.81906 -2.55497
thorax 9.60121 2.2018 -3.37236
lowerneck -5.50146 2.18486 4.90264
upperneck 3.08883 2.56778 0.142551
head 1.97898 1.3541 -0.704427
rclavicle -2.54444e-014 0
rhumerus -36.1449 11.2425 -101.75
rradius 66.3615
rwrist 1.98963
rhand -20.989 22.6426
rfingers 7.12502
rthumb 5.38493 -7.26895
lclavicle -2.54444e-014 0
lhumerus -43.7849 -18.1378 91.8818
lradius 92.4645
lwrist -3.34453
lhand -37.1407 -22.0882
lfingers 7.12502
lthumb -10.2104 7.64405
rfemur -0.406638 -10.5468 3.95339
rtibia 67.6474
rfoot 2.14243 9.75933
rtoes -35.6768
lfemur -25.8287 0.161023 -34.2348
ltibia 48.6481
lfoot -22.321 4.52754
ltoes 16.7954
252
root 3.15552 17.4625 12.2469 -218.698 -260.716 -223.924
lowerback -2.35734 2.46555 1.48769
upperback 7.44665 3.64453 -2.82888
thorax 9.48305 2.10529 -3.43764
lowerneck -5.8649 2.19964 4.90987
upperneck 2.9539 2.56741 0.190113
head 1.99961 1.35405 -0.688029
rclavicle 1.59028e-015 1.11319e-014
rhumerus -36.6616 10.326 -101.197
rradius 65.2611
rwrist 1.61474
rhand -21.2976 21.6775
rfingers 7.12502
rthumb 5.08702 -8.24143
lclavicle 1.59028e-015 1.11319e-014
lhumerus -42.3141 -18.1929 91.6601
lradius 93.026
lwrist -3.3973
lhand -37.104 -22.4361
lfingers 7.12502
lthumb -10.175 7.29788
rfemur -2.11614 -10.6586 3.05828
rtibia 69.865
rfoot 1.14632 9.45671
rtoes -35.4494
lfemur -24.856 -0.393519 -34.7211
ltibia 49.3493
lfoot -23.5519 4.47747
ltoes 16.2535
253
root 3.40035 17.4088 12.3238 -220.217 -261.587 -225.388
lowerback -2.03994 2.31 1.07661
upperback 7.61091 3.50301 -3.05443
thorax 9.45433 2.02637 -3.47346
lowerneck -6.39301 2.20573 4.99311
upperneck 3.00087 2.54106 0.120525
head 2.1134 1.34191 -0.721425
rclavicle 1.19271e-014 -4.13472e-014
rhumerus -37.1292 9.47981 -100.618
rradius 64.2202
rwrist 1.16254
rhand -21.4631 20.8251
rfingers 7.12502
rthumb 4.92719 -9.09762
lclavicle 1.19271e-014 -4.13472e-014
lhumerus -40.75 -18.3489 91.5302
lradius 93.5219
lwrist -3.59165
lhand -37.1634 -22.864
lfingers 7.12502
lthumb -10.2323 6.86709
rfemur -4.07385 -10.7768 2.34887
rtibia 71.9053
rfoot 0.228183 9.04156
rtoes -34.2203
lfemur -23.9482 -0.864355 -35.0893
ltibia 49.853
lfoot -24.6985 4.12496
ltoes 16.0895
254
root 3.64421 17.3638 12.3968 -222.574 -262.385 -227.815
lowerback -1.85388 2.15664 0.757693
upperback 7.74844 3.34683 -3.20291
thorax 9.47463 1.94139 -3.47476
lowerneck -6.86973 2.20336 5.02564
upperneck 3.08849 2.51124 -0.00389713
head 2.23197 1.32582 -0.764457
rclavicle -3.33958e-014 -3.18055e-015
rhumerus -37.6233 8.78407 -99.9996
rradius 63.2094
rwrist 0.720959
rhand -21.9245 20.5421
rfingers 7.12502
rthumb 4.48168 -9.39044
lclavicle -3.33958e-014 -3.18055e-015
lhumerus -39.1665 -18.5596 91.5163
lradius 94.0076
lwrist -3.75624
lhand -37.2298 -23.1808
lfingers 7.12502
lthumb -10.2964 6.54715
rfemur -6.21669 -10.9097 1.84896
rtibia 73.7601
rfoot -0.712894 8.40276
rtoes -32.7501
lfemur -23.0588 -1.34919 -35.3255
ltibia 50.146
lfoot -25.7552 3.85285
ltoes 15.8748
255
root 3.8878 17.3242 12.4689 -225.029 -263.191 -230.402
lowerback -1.71287 2.00878 0.389887
upperback 7.83066 3.19681 -3.35449
thorax 9.45921 1.85348 -3.44969
lowerneck -7.23165 2.2062 5.0385
upperneck 3.19922 2.49591 -0.11384
head 2.33751 1.31697 -0.799964
rclavicle 5.56597e-015 1.59028e-015
rhumerus -38.2691 8.1492 -99.3893
rradius 62.2392
rwrist 0.46198
rhand -22.7098 20.7755
rfingers 7.12502
rthumb 3.72338 -9.17171
lclavicle 5.56597e-015 1.59028e-015
lhumerus -37.7422 -18.8266 91.5918
lradius 94.4427
lwrist -3.94397
lhand -37.3869 -23.7314
lfingers 7.12502
lthumb -10.4479 5.98904
rfemur -8.50595 -11.025 1.36846
rtibia 75.4594
rfoot -1.59278 7.99858
rtoes -31.0954
lfemur -22.123 -1.8742 -35.5957
ltibia 50.2292
lfoot -26.6605 3.46266
ltoes 16.0164
256
root 4.13488 17.291 12.5378 -227.782 -264.012 -233.271
lowerback -1.6032 1.85038 -0.0484462
upperback 7.92764 3.03566 -3.47664
thorax 9.47368 1.75356 -3.35305
lowerneck -7.52001 2.2209 5.04748
upperneck 3.26159 2.5054 -0.303449
head 2.41597 1.31654 -0.860257
rclavicle -1.11319e-014 3.81667e-014
rhumerus -38.996 7.59387 -98.6858
rradius 61.3507
rwrist 0.513437
rhand -23.1904 21.1013
rfingers 7.12502
rthumb 3.25921 -8.85357
lclavicle -1.11319e-014 3.81667e-014
lhumerus -36.3485 -19.074 91.7426
lradius 94.8192
lwrist -4.14162
lhand -37.5082 -24.1511
lfingers 7.12502
lthumb -10.5649 5.56339
rfemur -10.859 -11.0514 0.909862
rtibia 76.992
rfoot -2.36286 8.04595
rtoes -29.4171
lfemur -21.0272 -2.44507 -35.9242
ltibia 50.0715
lfoot -27.3748 3.16072
ltoes 16.2788
